<?xml version="1.0" encoding="utf-8" standalone="no"?>
<!DOCTYPE svg PUBLIC "-//W3C//DTD SVG 1.1//EN"
  "http://www.w3.org/Graphics/SVG/1.1/DTD/svg11.dtd">
<!-- Created with matplotlib (http://matplotlib.org/) -->
<svg height="345pt" version="1.1" viewBox="0 0 460 345" width="460pt" xmlns="http://www.w3.org/2000/svg" xmlns:xlink="http://www.w3.org/1999/xlink">
 <defs>
  <style type="text/css">
*{stroke-linecap:butt;stroke-linejoin:round;}
  </style>
 </defs>
 <g id="figure_1">
  <g id="patch_1">
   <path d="M 0 345.6 
L 460.8 345.6 
L 460.8 0 
L 0 0 
z
" style="fill:#ffffff;"/>
  </g>
  <g id="axes_1">
   <g id="patch_2">
    <path d="M 57.6 307.584 
L 414.72 307.584 
L 414.72 41.472 
L 57.6 41.472 
z
" style="fill:#e5e5e5;"/>
   </g>
   <g id="matplotlib.axis_1">
    <g id="xtick_1">
     <g id="line2d_1">
      <path clip-path="url(#p0991b01730)" d="M 73.832727 307.584 
L 73.832727 41.472 
" style="fill:none;stroke:#ffffff;stroke-linecap:square;stroke-width:0.8;"/>
     </g>
     <g id="line2d_2">
      <defs>
       <path d="M 0 0 
L 0 3.5 
" id="m7713911c33" style="stroke:#555555;stroke-width:0.8;"/>
      </defs>
      <g>
       <use style="fill:#555555;stroke:#555555;stroke-width:0.8;" x="73.832727" xlink:href="#m7713911c33" y="307.584"/>
      </g>
     </g>
    </g>
    <g id="xtick_2">
     <g id="line2d_3">
      <path clip-path="url(#p0991b01730)" d="M 132.860826 307.584 
L 132.860826 41.472 
" style="fill:none;stroke:#ffffff;stroke-linecap:square;stroke-width:0.8;"/>
     </g>
     <g id="line2d_4">
      <g>
       <use style="fill:#555555;stroke:#555555;stroke-width:0.8;" x="132.860826" xlink:href="#m7713911c33" y="307.584"/>
      </g>
     </g>
    </g>
    <g id="xtick_3">
     <g id="line2d_5">
      <path clip-path="url(#p0991b01730)" d="M 191.888926 307.584 
L 191.888926 41.472 
" style="fill:none;stroke:#ffffff;stroke-linecap:square;stroke-width:0.8;"/>
     </g>
     <g id="line2d_6">
      <g>
       <use style="fill:#555555;stroke:#555555;stroke-width:0.8;" x="191.888926" xlink:href="#m7713911c33" y="307.584"/>
      </g>
     </g>
    </g>
    <g id="xtick_4">
     <g id="line2d_7">
      <path clip-path="url(#p0991b01730)" d="M 250.917025 307.584 
L 250.917025 41.472 
" style="fill:none;stroke:#ffffff;stroke-linecap:square;stroke-width:0.8;"/>
     </g>
     <g id="line2d_8">
      <g>
       <use style="fill:#555555;stroke:#555555;stroke-width:0.8;" x="250.917025" xlink:href="#m7713911c33" y="307.584"/>
      </g>
     </g>
    </g>
    <g id="xtick_5">
     <g id="line2d_9">
      <path clip-path="url(#p0991b01730)" d="M 309.945124 307.584 
L 309.945124 41.472 
" style="fill:none;stroke:#ffffff;stroke-linecap:square;stroke-width:0.8;"/>
     </g>
     <g id="line2d_10">
      <g>
       <use style="fill:#555555;stroke:#555555;stroke-width:0.8;" x="309.945124" xlink:href="#m7713911c33" y="307.584"/>
      </g>
     </g>
    </g>
    <g id="xtick_6">
     <g id="line2d_11">
      <path clip-path="url(#p0991b01730)" d="M 368.973223 307.584 
L 368.973223 41.472 
" style="fill:none;stroke:#ffffff;stroke-linecap:square;stroke-width:0.8;"/>
     </g>
     <g id="line2d_12">
      <g>
       <use style="fill:#555555;stroke:#555555;stroke-width:0.8;" x="368.973223" xlink:href="#m7713911c33" y="307.584"/>
      </g>
     </g>
    </g>
    <g id="text_1">
     <!-- time -->
     <defs>
      <path d="M 18.3125 70.21875 
L 18.3125 54.6875 
L 36.8125 54.6875 
L 36.8125 47.703125 
L 18.3125 47.703125 
L 18.3125 18.015625 
Q 18.3125 11.328125 20.140625 9.421875 
Q 21.96875 7.515625 27.59375 7.515625 
L 36.8125 7.515625 
L 36.8125 0 
L 27.59375 0 
Q 17.1875 0 13.234375 3.875 
Q 9.28125 7.765625 9.28125 18.015625 
L 9.28125 47.703125 
L 2.6875 47.703125 
L 2.6875 54.6875 
L 9.28125 54.6875 
L 9.28125 70.21875 
z
" id="DejaVuSans-74"/>
      <path d="M 9.421875 54.6875 
L 18.40625 54.6875 
L 18.40625 0 
L 9.421875 0 
z
M 9.421875 75.984375 
L 18.40625 75.984375 
L 18.40625 64.59375 
L 9.421875 64.59375 
z
" id="DejaVuSans-69"/>
      <path d="M 52 44.1875 
Q 55.375 50.25 60.0625 53.125 
Q 64.75 56 71.09375 56 
Q 79.640625 56 84.28125 50.015625 
Q 88.921875 44.046875 88.921875 33.015625 
L 88.921875 0 
L 79.890625 0 
L 79.890625 32.71875 
Q 79.890625 40.578125 77.09375 44.375 
Q 74.3125 48.1875 68.609375 48.1875 
Q 61.625 48.1875 57.5625 43.546875 
Q 53.515625 38.921875 53.515625 30.90625 
L 53.515625 0 
L 44.484375 0 
L 44.484375 32.71875 
Q 44.484375 40.625 41.703125 44.40625 
Q 38.921875 48.1875 33.109375 48.1875 
Q 26.21875 48.1875 22.15625 43.53125 
Q 18.109375 38.875 18.109375 30.90625 
L 18.109375 0 
L 9.078125 0 
L 9.078125 54.6875 
L 18.109375 54.6875 
L 18.109375 46.1875 
Q 21.1875 51.21875 25.484375 53.609375 
Q 29.78125 56 35.6875 56 
Q 41.65625 56 45.828125 52.96875 
Q 50 49.953125 52 44.1875 
z
" id="DejaVuSans-6d"/>
      <path d="M 56.203125 29.59375 
L 56.203125 25.203125 
L 14.890625 25.203125 
Q 15.484375 15.921875 20.484375 11.0625 
Q 25.484375 6.203125 34.421875 6.203125 
Q 39.59375 6.203125 44.453125 7.46875 
Q 49.3125 8.734375 54.109375 11.28125 
L 54.109375 2.78125 
Q 49.265625 0.734375 44.1875 -0.34375 
Q 39.109375 -1.421875 33.890625 -1.421875 
Q 20.796875 -1.421875 13.15625 6.1875 
Q 5.515625 13.8125 5.515625 26.8125 
Q 5.515625 40.234375 12.765625 48.109375 
Q 20.015625 56 32.328125 56 
Q 43.359375 56 49.78125 48.890625 
Q 56.203125 41.796875 56.203125 29.59375 
z
M 47.21875 32.234375 
Q 47.125 39.59375 43.09375 43.984375 
Q 39.0625 48.390625 32.421875 48.390625 
Q 24.90625 48.390625 20.390625 44.140625 
Q 15.875 39.890625 15.1875 32.171875 
z
" id="DejaVuSans-65"/>
     </defs>
     <g style="fill:#555555;" transform="translate(222.604688 327.702125)scale(0.12 -0.12)">
      <use xlink:href="#DejaVuSans-74"/>
      <use x="39.208984" xlink:href="#DejaVuSans-69"/>
      <use x="66.992188" xlink:href="#DejaVuSans-6d"/>
      <use x="164.404297" xlink:href="#DejaVuSans-65"/>
     </g>
    </g>
   </g>
   <g id="matplotlib.axis_2">
    <g id="ytick_1">
     <g id="line2d_13">
      <path clip-path="url(#p0991b01730)" d="M 57.6 271.882265 
L 414.72 271.882265 
" style="fill:none;stroke:#ffffff;stroke-linecap:square;stroke-width:0.8;"/>
     </g>
     <g id="line2d_14">
      <defs>
       <path d="M 0 0 
L -3.5 0 
" id="m03f89e6c0f" style="stroke:#555555;stroke-width:0.8;"/>
      </defs>
      <g>
       <use style="fill:#555555;stroke:#555555;stroke-width:0.8;" x="57.6" xlink:href="#m03f89e6c0f" y="271.882265"/>
      </g>
     </g>
    </g>
    <g id="ytick_2">
     <g id="line2d_15">
      <path clip-path="url(#p0991b01730)" d="M 57.6 224.670795 
L 414.72 224.670795 
" style="fill:none;stroke:#ffffff;stroke-linecap:square;stroke-width:0.8;"/>
     </g>
     <g id="line2d_16">
      <g>
       <use style="fill:#555555;stroke:#555555;stroke-width:0.8;" x="57.6" xlink:href="#m03f89e6c0f" y="224.670795"/>
      </g>
     </g>
    </g>
    <g id="ytick_3">
     <g id="line2d_17">
      <path clip-path="url(#p0991b01730)" d="M 57.6 177.459326 
L 414.72 177.459326 
" style="fill:none;stroke:#ffffff;stroke-linecap:square;stroke-width:0.8;"/>
     </g>
     <g id="line2d_18">
      <g>
       <use style="fill:#555555;stroke:#555555;stroke-width:0.8;" x="57.6" xlink:href="#m03f89e6c0f" y="177.459326"/>
      </g>
     </g>
    </g>
    <g id="ytick_4">
     <g id="line2d_19">
      <path clip-path="url(#p0991b01730)" d="M 57.6 130.247856 
L 414.72 130.247856 
" style="fill:none;stroke:#ffffff;stroke-linecap:square;stroke-width:0.8;"/>
     </g>
     <g id="line2d_20">
      <g>
       <use style="fill:#555555;stroke:#555555;stroke-width:0.8;" x="57.6" xlink:href="#m03f89e6c0f" y="130.247856"/>
      </g>
     </g>
    </g>
    <g id="ytick_5">
     <g id="line2d_21">
      <path clip-path="url(#p0991b01730)" d="M 57.6 83.036386 
L 414.72 83.036386 
" style="fill:none;stroke:#ffffff;stroke-linecap:square;stroke-width:0.8;"/>
     </g>
     <g id="line2d_22">
      <g>
       <use style="fill:#555555;stroke:#555555;stroke-width:0.8;" x="57.6" xlink:href="#m03f89e6c0f" y="83.036386"/>
      </g>
     </g>
    </g>
    <g id="text_2">
     <!-- production -->
     <defs>
      <path d="M 18.109375 8.203125 
L 18.109375 -20.796875 
L 9.078125 -20.796875 
L 9.078125 54.6875 
L 18.109375 54.6875 
L 18.109375 46.390625 
Q 20.953125 51.265625 25.265625 53.625 
Q 29.59375 56 35.59375 56 
Q 45.5625 56 51.78125 48.09375 
Q 58.015625 40.1875 58.015625 27.296875 
Q 58.015625 14.40625 51.78125 6.484375 
Q 45.5625 -1.421875 35.59375 -1.421875 
Q 29.59375 -1.421875 25.265625 0.953125 
Q 20.953125 3.328125 18.109375 8.203125 
z
M 48.6875 27.296875 
Q 48.6875 37.203125 44.609375 42.84375 
Q 40.53125 48.484375 33.40625 48.484375 
Q 26.265625 48.484375 22.1875 42.84375 
Q 18.109375 37.203125 18.109375 27.296875 
Q 18.109375 17.390625 22.1875 11.75 
Q 26.265625 6.109375 33.40625 6.109375 
Q 40.53125 6.109375 44.609375 11.75 
Q 48.6875 17.390625 48.6875 27.296875 
z
" id="DejaVuSans-70"/>
      <path d="M 41.109375 46.296875 
Q 39.59375 47.171875 37.8125 47.578125 
Q 36.03125 48 33.890625 48 
Q 26.265625 48 22.1875 43.046875 
Q 18.109375 38.09375 18.109375 28.8125 
L 18.109375 0 
L 9.078125 0 
L 9.078125 54.6875 
L 18.109375 54.6875 
L 18.109375 46.1875 
Q 20.953125 51.171875 25.484375 53.578125 
Q 30.03125 56 36.53125 56 
Q 37.453125 56 38.578125 55.875 
Q 39.703125 55.765625 41.0625 55.515625 
z
" id="DejaVuSans-72"/>
      <path d="M 30.609375 48.390625 
Q 23.390625 48.390625 19.1875 42.75 
Q 14.984375 37.109375 14.984375 27.296875 
Q 14.984375 17.484375 19.15625 11.84375 
Q 23.34375 6.203125 30.609375 6.203125 
Q 37.796875 6.203125 41.984375 11.859375 
Q 46.1875 17.53125 46.1875 27.296875 
Q 46.1875 37.015625 41.984375 42.703125 
Q 37.796875 48.390625 30.609375 48.390625 
z
M 30.609375 56 
Q 42.328125 56 49.015625 48.375 
Q 55.71875 40.765625 55.71875 27.296875 
Q 55.71875 13.875 49.015625 6.21875 
Q 42.328125 -1.421875 30.609375 -1.421875 
Q 18.84375 -1.421875 12.171875 6.21875 
Q 5.515625 13.875 5.515625 27.296875 
Q 5.515625 40.765625 12.171875 48.375 
Q 18.84375 56 30.609375 56 
z
" id="DejaVuSans-6f"/>
      <path d="M 45.40625 46.390625 
L 45.40625 75.984375 
L 54.390625 75.984375 
L 54.390625 0 
L 45.40625 0 
L 45.40625 8.203125 
Q 42.578125 3.328125 38.25 0.953125 
Q 33.9375 -1.421875 27.875 -1.421875 
Q 17.96875 -1.421875 11.734375 6.484375 
Q 5.515625 14.40625 5.515625 27.296875 
Q 5.515625 40.1875 11.734375 48.09375 
Q 17.96875 56 27.875 56 
Q 33.9375 56 38.25 53.625 
Q 42.578125 51.265625 45.40625 46.390625 
z
M 14.796875 27.296875 
Q 14.796875 17.390625 18.875 11.75 
Q 22.953125 6.109375 30.078125 6.109375 
Q 37.203125 6.109375 41.296875 11.75 
Q 45.40625 17.390625 45.40625 27.296875 
Q 45.40625 37.203125 41.296875 42.84375 
Q 37.203125 48.484375 30.078125 48.484375 
Q 22.953125 48.484375 18.875 42.84375 
Q 14.796875 37.203125 14.796875 27.296875 
z
" id="DejaVuSans-64"/>
      <path d="M 8.5 21.578125 
L 8.5 54.6875 
L 17.484375 54.6875 
L 17.484375 21.921875 
Q 17.484375 14.15625 20.5 10.265625 
Q 23.53125 6.390625 29.59375 6.390625 
Q 36.859375 6.390625 41.078125 11.03125 
Q 45.3125 15.671875 45.3125 23.6875 
L 45.3125 54.6875 
L 54.296875 54.6875 
L 54.296875 0 
L 45.3125 0 
L 45.3125 8.40625 
Q 42.046875 3.421875 37.71875 1 
Q 33.40625 -1.421875 27.6875 -1.421875 
Q 18.265625 -1.421875 13.375 4.4375 
Q 8.5 10.296875 8.5 21.578125 
z
M 31.109375 56 
z
" id="DejaVuSans-75"/>
      <path d="M 48.78125 52.59375 
L 48.78125 44.1875 
Q 44.96875 46.296875 41.140625 47.34375 
Q 37.3125 48.390625 33.40625 48.390625 
Q 24.65625 48.390625 19.8125 42.84375 
Q 14.984375 37.3125 14.984375 27.296875 
Q 14.984375 17.28125 19.8125 11.734375 
Q 24.65625 6.203125 33.40625 6.203125 
Q 37.3125 6.203125 41.140625 7.25 
Q 44.96875 8.296875 48.78125 10.40625 
L 48.78125 2.09375 
Q 45.015625 0.34375 40.984375 -0.53125 
Q 36.96875 -1.421875 32.421875 -1.421875 
Q 20.0625 -1.421875 12.78125 6.34375 
Q 5.515625 14.109375 5.515625 27.296875 
Q 5.515625 40.671875 12.859375 48.328125 
Q 20.21875 56 33.015625 56 
Q 37.15625 56 41.109375 55.140625 
Q 45.0625 54.296875 48.78125 52.59375 
z
" id="DejaVuSans-63"/>
      <path d="M 54.890625 33.015625 
L 54.890625 0 
L 45.90625 0 
L 45.90625 32.71875 
Q 45.90625 40.484375 42.875 44.328125 
Q 39.84375 48.1875 33.796875 48.1875 
Q 26.515625 48.1875 22.3125 43.546875 
Q 18.109375 38.921875 18.109375 30.90625 
L 18.109375 0 
L 9.078125 0 
L 9.078125 54.6875 
L 18.109375 54.6875 
L 18.109375 46.1875 
Q 21.34375 51.125 25.703125 53.5625 
Q 30.078125 56 35.796875 56 
Q 45.21875 56 50.046875 50.171875 
Q 54.890625 44.34375 54.890625 33.015625 
z
" id="DejaVuSans-6e"/>
     </defs>
     <g style="fill:#555555;" transform="translate(44.104375 206.876437)rotate(-90)scale(0.12 -0.12)">
      <use xlink:href="#DejaVuSans-70"/>
      <use x="63.476562" xlink:href="#DejaVuSans-72"/>
      <use x="104.558594" xlink:href="#DejaVuSans-6f"/>
      <use x="165.740234" xlink:href="#DejaVuSans-64"/>
      <use x="229.216797" xlink:href="#DejaVuSans-75"/>
      <use x="292.595703" xlink:href="#DejaVuSans-63"/>
      <use x="347.576172" xlink:href="#DejaVuSans-74"/>
      <use x="386.785156" xlink:href="#DejaVuSans-69"/>
      <use x="414.568359" xlink:href="#DejaVuSans-6f"/>
      <use x="475.75" xlink:href="#DejaVuSans-6e"/>
     </g>
    </g>
   </g>
   <g id="line2d_23">
    <defs>
     <path d="M -3 3 
L 3 -3 
M -3 -3 
L 3 3 
" id="mcab1828a49" style="stroke:#e24a33;"/>
    </defs>
    <g clip-path="url(#p0991b01730)">
     <use style="fill:#e24a33;stroke:#e24a33;" x="73.832727" xlink:href="#mcab1828a49" y="53.568"/>
     <use style="fill:#e24a33;stroke:#e24a33;" x="80.45833" xlink:href="#mcab1828a49" y="75.730488"/>
     <use style="fill:#e24a33;stroke:#e24a33;" x="87.083933" xlink:href="#mcab1828a49" y="81.464184"/>
     <use style="fill:#e24a33;stroke:#e24a33;" x="93.709536" xlink:href="#mcab1828a49" y="86.663937"/>
     <use style="fill:#e24a33;stroke:#e24a33;" x="100.335139" xlink:href="#mcab1828a49" y="110.206552"/>
     <use style="fill:#e24a33;stroke:#e24a33;" x="106.960742" xlink:href="#mcab1828a49" y="118.681418"/>
     <use style="fill:#e24a33;stroke:#e24a33;" x="113.586345" xlink:href="#mcab1828a49" y="116.54973"/>
     <use style="fill:#e24a33;stroke:#e24a33;" x="120.211948" xlink:href="#mcab1828a49" y="127.957397"/>
     <use style="fill:#e24a33;stroke:#e24a33;" x="126.837551" xlink:href="#mcab1828a49" y="139.165397"/>
     <use style="fill:#e24a33;stroke:#e24a33;" x="133.463154" xlink:href="#mcab1828a49" y="140.437115"/>
     <use style="fill:#e24a33;stroke:#e24a33;" x="140.088757" xlink:href="#mcab1828a49" y="148.190034"/>
     <use style="fill:#e24a33;stroke:#e24a33;" x="146.71436" xlink:href="#mcab1828a49" y="295.488"/>
     <use style="fill:#e24a33;stroke:#e24a33;" x="153.339963" xlink:href="#mcab1828a49" y="295.488"/>
     <use style="fill:#e24a33;stroke:#e24a33;" x="159.965566" xlink:href="#mcab1828a49" y="295.488"/>
     <use style="fill:#e24a33;stroke:#e24a33;" x="166.591169" xlink:href="#mcab1828a49" y="295.488"/>
     <use style="fill:#e24a33;stroke:#e24a33;" x="173.216772" xlink:href="#mcab1828a49" y="295.488"/>
     <use style="fill:#e24a33;stroke:#e24a33;" x="179.842375" xlink:href="#mcab1828a49" y="295.488"/>
     <use style="fill:#e24a33;stroke:#e24a33;" x="186.467978" xlink:href="#mcab1828a49" y="295.488"/>
     <use style="fill:#e24a33;stroke:#e24a33;" x="193.093581" xlink:href="#mcab1828a49" y="295.488"/>
     <use style="fill:#e24a33;stroke:#e24a33;" x="199.719184" xlink:href="#mcab1828a49" y="295.488"/>
     <use style="fill:#e24a33;stroke:#e24a33;" x="206.344787" xlink:href="#mcab1828a49" y="295.488"/>
     <use style="fill:#e24a33;stroke:#e24a33;" x="212.97039" xlink:href="#mcab1828a49" y="295.488"/>
     <use style="fill:#e24a33;stroke:#e24a33;" x="219.595993" xlink:href="#mcab1828a49" y="295.488"/>
     <use style="fill:#e24a33;stroke:#e24a33;" x="226.221596" xlink:href="#mcab1828a49" y="295.488"/>
     <use style="fill:#e24a33;stroke:#e24a33;" x="232.847199" xlink:href="#mcab1828a49" y="295.488"/>
     <use style="fill:#e24a33;stroke:#e24a33;" x="239.472801" xlink:href="#mcab1828a49" y="295.488"/>
     <use style="fill:#e24a33;stroke:#e24a33;" x="246.098404" xlink:href="#mcab1828a49" y="295.488"/>
     <use style="fill:#e24a33;stroke:#e24a33;" x="252.724007" xlink:href="#mcab1828a49" y="295.488"/>
     <use style="fill:#e24a33;stroke:#e24a33;" x="259.34961" xlink:href="#mcab1828a49" y="295.488"/>
     <use style="fill:#e24a33;stroke:#e24a33;" x="265.975213" xlink:href="#mcab1828a49" y="295.488"/>
     <use style="fill:#e24a33;stroke:#e24a33;" x="272.600816" xlink:href="#mcab1828a49" y="295.488"/>
     <use style="fill:#e24a33;stroke:#e24a33;" x="279.226419" xlink:href="#mcab1828a49" y="295.488"/>
     <use style="fill:#e24a33;stroke:#e24a33;" x="285.852022" xlink:href="#mcab1828a49" y="295.488"/>
     <use style="fill:#e24a33;stroke:#e24a33;" x="292.477625" xlink:href="#mcab1828a49" y="295.488"/>
     <use style="fill:#e24a33;stroke:#e24a33;" x="299.103228" xlink:href="#mcab1828a49" y="295.488"/>
     <use style="fill:#e24a33;stroke:#e24a33;" x="305.728831" xlink:href="#mcab1828a49" y="295.488"/>
     <use style="fill:#e24a33;stroke:#e24a33;" x="312.354434" xlink:href="#mcab1828a49" y="295.488"/>
     <use style="fill:#e24a33;stroke:#e24a33;" x="318.980037" xlink:href="#mcab1828a49" y="295.488"/>
     <use style="fill:#e24a33;stroke:#e24a33;" x="325.60564" xlink:href="#mcab1828a49" y="295.488"/>
     <use style="fill:#e24a33;stroke:#e24a33;" x="332.231243" xlink:href="#mcab1828a49" y="295.488"/>
     <use style="fill:#e24a33;stroke:#e24a33;" x="338.856846" xlink:href="#mcab1828a49" y="295.488"/>
     <use style="fill:#e24a33;stroke:#e24a33;" x="345.482449" xlink:href="#mcab1828a49" y="295.488"/>
     <use style="fill:#e24a33;stroke:#e24a33;" x="352.108052" xlink:href="#mcab1828a49" y="295.488"/>
     <use style="fill:#e24a33;stroke:#e24a33;" x="358.733655" xlink:href="#mcab1828a49" y="295.488"/>
     <use style="fill:#e24a33;stroke:#e24a33;" x="365.359258" xlink:href="#mcab1828a49" y="295.488"/>
     <use style="fill:#e24a33;stroke:#e24a33;" x="371.984861" xlink:href="#mcab1828a49" y="295.488"/>
     <use style="fill:#e24a33;stroke:#e24a33;" x="378.610464" xlink:href="#mcab1828a49" y="295.488"/>
     <use style="fill:#e24a33;stroke:#e24a33;" x="385.236067" xlink:href="#mcab1828a49" y="295.488"/>
     <use style="fill:#e24a33;stroke:#e24a33;" x="391.86167" xlink:href="#mcab1828a49" y="295.488"/>
     <use style="fill:#e24a33;stroke:#e24a33;" x="398.487273" xlink:href="#mcab1828a49" y="295.488"/>
    </g>
   </g>
   <g id="patch_3">
    <path d="M 57.6 307.584 
L 57.6 41.472 
" style="fill:none;stroke:#ffffff;stroke-linecap:square;stroke-linejoin:miter;"/>
   </g>
   <g id="patch_4">
    <path d="M 414.72 307.584 
L 414.72 41.472 
" style="fill:none;stroke:#ffffff;stroke-linecap:square;stroke-linejoin:miter;"/>
   </g>
   <g id="patch_5">
    <path d="M 57.6 307.584 
L 414.72 307.584 
" style="fill:none;stroke:#ffffff;stroke-linecap:square;stroke-linejoin:miter;"/>
   </g>
   <g id="patch_6">
    <path d="M 57.6 41.472 
L 414.72 41.472 
" style="fill:none;stroke:#ffffff;stroke-linecap:square;stroke-linejoin:miter;"/>
   </g>
  </g>
 </g>
 <defs>
  <clipPath id="p0991b01730">
   <rect height="266.112" width="357.12" x="57.6" y="41.472"/>
  </clipPath>
 </defs>
</svg>
